<svg width="26" height="27" viewBox="0 0 26 27" fill="none" xmlns="http://www.w3.org/2000/svg">
<path d="M23.4765 9.79011V5.00831C23.4765 3.52321 22.8024 2.92285 21.1277 2.92285H16.8726C15.1979 2.92285 14.5238 3.52321 14.5238 5.00831V9.77957C14.5238 11.2752 15.1979 11.865 16.8726 11.865H21.1277C22.8024 11.8756 23.4765 11.2752 23.4765 9.79011Z" fill="white" stroke="white" stroke-width="1.89587" stroke-linecap="round" stroke-linejoin="round"/>
<path d="M23.4765 21.6391V17.3839C23.4765 15.7092 22.8024 15.0352 21.1277 15.0352H16.8726C15.1979 15.0352 14.5238 15.7092 14.5238 17.3839V21.6391C14.5238 23.3138 15.1979 23.9879 16.8726 23.9879H21.1277C22.8024 23.9879 23.4765 23.3138 23.4765 21.6391Z" fill="#929292" fill-opacity="0.4" stroke="#929292" stroke-opacity="0.4" stroke-width="1.89587" stroke-linecap="round" stroke-linejoin="round"/>
<path d="M11.364 9.79011V5.00831C11.364 3.52321 10.6899 2.92285 9.01519 2.92285H4.76002C3.08534 2.92285 2.41125 3.52321 2.41125 5.00831V9.77957C2.41125 11.2752 3.08534 11.865 4.76002 11.865H9.01519C10.6899 11.8756 11.364 11.2752 11.364 9.79011Z" fill="white" stroke="white" stroke-width="1.89587" stroke-linecap="round" stroke-linejoin="round"/>
<path d="M11.364 21.6391V17.3839C11.364 15.7092 10.6899 15.0352 9.01519 15.0352H4.76002C3.08534 15.0352 2.41125 15.7092 2.41125 17.3839V21.6391C2.41125 23.3138 3.08534 23.9879 4.76002 23.9879H9.01519C10.6899 23.9879 11.364 23.3138 11.364 21.6391Z" fill="white" stroke="white" stroke-width="1.89587" stroke-linecap="round" stroke-linejoin="round"/>
</svg>
