<svg xmlns="http://www.w3.org/2000/svg" viewBox="0 0 1052.78 1260.54" fill="#909fa58a" ><path d="M1586.75,1954,1757,1667.72c20.08,8.83,40.25,16.86,59.69,26.38,68.75,33.68,131.19,75.66,178.7,137.16,32.21,41.7,52.73,88.29,60,140.48,4.37,31.54-7.18,55.8-34.1,73.5-73.66,48.42-155.57,75.18-241.07,92.47-113.55,22.95-228.27,26.76-343.61,20-99.81-5.81-197.76-21.65-291.11-58.38-35-13.77-68.76-31.53-101.38-50.42-38-22-46-45.77-37.56-88.77,17.44-88.74,68.68-154.6,139.37-207.34,44.89-33.49,94.28-58.89,146.49-78.93,3.35-1.29,6.78-2.36,11.13-3.86l169.86,288.16,2.61-.9c2.16-26.15,4.4-52.29,6.46-78.44,2.66-33.67,5.77-67.32,7.41-101a89.08,89.08,0,0,0-4.88-33c-7.81-22.31-17.52-44-26.21-65.3,24.09,1.91,48,5.53,71.87,5.23s47.76-4.52,72.7-7.13c-3.19,7.8-6.15,17.13-10.65,25.65-18.36,34.68-26.07,70.22-20.33,110.22,6.66,46.38,7.9,93.54,11.49,140.36Z" transform="translate(-1003.49 -900.19)"/><path d="M1194,1135.65V1262.9h-34.41v-35.51c0-32.87-.29-65.76.12-98.63.1-7.88-2.15-12.43-9.41-16-15-7.37-29.61-15.74-47.13-25.19,17.17-7.89,31.66-14.67,46.25-21.25q182-82.08,364-163.84c5.13-2.3,12.87-3.26,17.71-1.09,136.34,61.23,272.47,122.94,411.29,185.78-17.3,10.75-32.35,21.61-48.68,30-119.2,61.28-238.7,122-357.94,183.2-8.67,4.45-15.33,4.5-24,0q-149.68-78.22-299.77-155.73C1207,1142,1201.75,1139.48,1194,1135.65Z" transform="translate(-1003.49 -900.19)"/><path d="M1289.31,1237.43c36.09,18.59,70.91,36.48,105.7,54.44,38.89,20.08,78,39.72,116.44,60.63,10.68,5.81,18.32,4.86,28.57-.5,74.35-38.83,149.06-77,224.75-115.93a238,238,0,0,1,24.46,80.56c11.47,95.19-15.12,178-84.68,245.08-94.54,91.2-239.1,95.84-340.57,11.85-93.08-77-126.56-214.46-79.39-325.8C1285.82,1244.86,1287.21,1242,1289.31,1237.43Z" transform="translate(-1003.49 -900.19)"/><path d="M1139.24,1369.17c6.87-29.3,13.68-58.36,20.36-86.84,1.72-.78,2.52-1.43,3.36-1.49,31.29-2.32,31.39-2.34,38.4,28.22,4.45,19.44,8.56,39,13.19,60.11Z" transform="translate(-1003.49 -900.19)"/></svg>