<svg width="1608" height="472" viewBox="0 0 1608 472" fill="#009B95" xmlns="http://www.w3.org/2000/svg">
<path d="M397.385 242.555L342.136 86.5569C341.508 84.6849 340.465 83.334 339.007 82.5042C337.756 81.6741 336.298 81.2606 334.633 81.2638C330.887 81.271 328.393 83.0449 327.151 86.5857L272.502 242.795L235.974 242.865L296.526 71.9707C299.424 63.4315 304.199 57.0741 310.851 52.8985C317.712 48.7226 325.617 46.626 334.567 46.6088C343.309 46.592 351.118 48.6584 357.994 52.808C364.871 56.9576 369.774 63.2964 372.705 71.8244L433.913 242.485L397.385 242.555Z" fill="#009B95"/>
<path d="M158.54 86.0756C172.891 86.0756 186.919 90.3313 198.851 98.3046C210.783 106.278 220.083 117.61 225.574 130.869C231.065 144.128 232.5 158.717 229.699 172.792C226.899 186.867 219.987 199.795 209.838 209.941C199.689 220.087 186.759 226.996 172.684 229.793C158.608 232.591 144.02 231.152 130.762 225.657C117.505 220.163 106.175 210.861 98.2042 198.927C90.2339 186.993 85.9816 172.964 85.9851 158.613C86.0133 139.365 93.6792 120.915 107.299 107.315C120.92 93.7145 139.381 86.0756 158.629 86.0756H158.54ZM158.629 0.00195411C127.254 0.00195431 96.5842 9.30583 70.4975 26.7369C44.4108 44.168 24.079 68.9435 12.0733 97.9301C0.0675606 126.917 -3.07278 158.813 3.04937 189.584C9.17152 220.355 24.2812 248.62 46.4676 270.804C68.6539 292.988 96.9205 308.094 127.693 314.213C158.465 320.332 190.36 317.188 219.345 305.179C248.331 293.17 273.104 272.836 290.532 246.747C307.96 220.658 317.261 189.987 317.257 158.613C317.257 137.782 313.154 117.156 305.182 97.9109C297.21 78.6662 285.525 61.1803 270.795 46.4517C256.065 31.7231 238.577 20.0403 219.332 12.0704C200.086 4.10052 179.459 -0.000372802 158.629 0.00195411V0.00195411Z" fill="#FF7A00"/>
<path d="M506.005 86.0737C520.356 86.0737 534.384 90.3294 546.316 98.3026C558.248 106.276 567.547 117.608 573.038 130.867C578.529 144.126 579.965 158.715 577.164 172.79C574.363 186.865 567.451 199.793 557.303 209.939C547.154 220.085 534.224 226.994 520.149 229.791C506.073 232.589 491.484 231.15 478.227 225.655C464.97 220.161 453.639 210.859 445.669 198.925C437.699 186.991 433.446 172.962 433.45 158.611C433.478 139.378 441.132 120.942 454.733 107.344C468.334 93.7463 486.772 86.0971 506.005 86.0737V86.0737ZM506.005 9.89843e-07C474.629 -0.00350326 443.958 9.29738 417.869 26.7264C391.78 44.1553 371.445 68.9295 359.437 97.9158C347.428 126.902 344.285 158.799 350.406 189.571C356.526 220.344 371.634 248.61 393.82 270.796C416.005 292.982 444.272 308.09 475.044 314.21C505.817 320.33 537.713 317.187 566.7 305.179C595.686 293.17 620.46 272.836 637.889 246.747C655.318 220.658 664.619 189.986 664.616 158.611C664.616 116.545 647.905 76.2013 618.159 46.456C588.414 16.7107 548.071 9.89843e-07 506.005 9.89843e-07V9.89843e-07Z" fill="#FF7A00"/>
<path fill-rule="evenodd" clip-rule="evenodd" d="M421.234 452.942C394.74 440.394 371.364 422.119 352.792 399.438L413.781 349.498C424.959 363.15 439.03 374.149 454.976 381.702C470.923 389.255 488.347 393.173 505.992 393.173C523.636 393.173 541.061 389.255 557.007 381.702C572.954 374.149 587.024 363.15 598.202 349.498L659.192 399.438C640.62 422.119 617.243 440.394 590.75 452.942C564.256 465.491 535.307 472 505.992 472C476.677 472 447.727 465.491 421.234 452.942Z" fill="#FF7A00"/>
<path d="M889.034 275.164C873.63 290.422 854.884 298.052 832.796 298.052C810.707 298.052 791.961 290.422 776.557 275.164C761.299 259.615 753.67 240.796 753.67 218.708C753.67 196.474 761.299 177.728 776.557 162.47C791.961 147.066 810.707 139.364 832.796 139.364C854.884 139.364 873.63 147.066 889.034 162.47C904.437 177.728 912.139 196.474 912.139 218.708C912.139 240.942 904.437 259.76 889.034 275.164ZM797.701 254.674C807.002 263.975 818.7 268.625 832.796 268.625C846.891 268.625 858.59 263.975 867.89 254.674C877.336 245.229 882.058 233.24 882.058 218.708C882.058 204.176 877.336 192.187 867.89 182.742C858.444 173.296 846.746 168.573 832.796 168.573C818.845 168.573 807.147 173.296 797.701 182.742C788.256 192.187 783.533 204.176 783.533 218.708C783.533 233.24 788.256 245.229 797.701 254.674ZM1006.52 213.041H1083.03V224.811C1083.03 246.609 1076.06 264.265 1062.11 277.78C1048.16 291.294 1030.14 298.052 1008.05 298.052C984.506 298.052 964.961 290.422 949.412 275.164C934.008 259.76 926.306 241.014 926.306 218.926C926.306 196.692 933.935 177.874 949.194 162.47C964.597 147.066 983.634 139.364 1006.3 139.364C1020.4 139.364 1033.33 142.561 1045.1 148.955C1056.87 155.349 1066.1 163.996 1072.79 174.895L1047.07 189.717C1043.43 183.468 1037.91 178.382 1030.5 174.459C1023.09 170.535 1014.95 168.573 1006.09 168.573C991.409 168.573 979.42 173.369 970.12 182.96C960.819 192.26 956.169 204.249 956.169 218.926C956.169 233.312 960.892 245.229 970.338 254.674C979.783 263.975 992.426 268.625 1008.27 268.625C1019.75 268.625 1029.34 266.082 1037.04 260.996C1044.74 255.909 1049.97 248.789 1052.73 239.634H1006.52V213.041ZM1232.82 275.164C1217.41 290.422 1198.67 298.052 1176.58 298.052C1154.49 298.052 1135.74 290.422 1120.34 275.164C1105.08 259.615 1097.45 240.796 1097.45 218.708C1097.45 196.474 1105.08 177.728 1120.34 162.47C1135.74 147.066 1154.49 139.364 1176.58 139.364C1198.67 139.364 1217.41 147.066 1232.82 162.47C1248.22 177.728 1255.92 196.474 1255.92 218.708C1255.92 240.942 1248.22 259.76 1232.82 275.164ZM1141.48 254.674C1150.78 263.975 1162.48 268.625 1176.58 268.625C1190.67 268.625 1202.37 263.975 1211.67 254.674C1221.12 245.229 1225.84 233.24 1225.84 218.708C1225.84 204.176 1221.12 192.187 1211.67 182.742C1202.23 173.296 1190.53 168.573 1176.58 168.573C1162.63 168.573 1150.93 173.296 1141.48 182.742C1132.04 192.187 1127.32 204.176 1127.32 218.708C1127.32 233.24 1132.04 245.229 1141.48 254.674ZM1350.3 213.041H1426.81V224.811C1426.81 246.609 1419.84 264.265 1405.89 277.78C1391.94 291.294 1373.92 298.052 1351.83 298.052C1328.29 298.052 1308.74 290.422 1293.19 275.164C1277.79 259.76 1270.09 241.014 1270.09 218.926C1270.09 196.692 1277.72 177.874 1292.98 162.47C1308.38 147.066 1327.42 139.364 1350.09 139.364C1364.18 139.364 1377.12 142.561 1388.89 148.955C1400.66 155.349 1409.88 163.996 1416.57 174.895L1390.85 189.717C1387.22 183.468 1381.69 178.382 1374.28 174.459C1366.87 170.535 1358.73 168.573 1349.87 168.573C1335.19 168.573 1323.2 173.369 1313.9 182.96C1304.6 192.26 1299.95 204.249 1299.95 218.926C1299.95 233.312 1304.67 245.229 1314.12 254.674C1323.57 263.975 1336.21 268.625 1352.05 268.625C1363.53 268.625 1373.12 266.082 1380.82 260.996C1388.52 255.909 1393.75 248.789 1396.52 239.634H1350.3V213.041ZM1576.6 275.164C1561.19 290.422 1542.45 298.052 1520.36 298.052C1498.27 298.052 1479.53 290.422 1464.12 275.164C1448.86 259.615 1441.23 240.796 1441.23 218.708C1441.23 196.474 1448.86 177.728 1464.12 162.47C1479.53 147.066 1498.27 139.364 1520.36 139.364C1542.45 139.364 1561.19 147.066 1576.6 162.47C1592 177.728 1599.7 196.474 1599.7 218.708C1599.7 240.942 1592 259.76 1576.6 275.164ZM1485.27 254.674C1494.57 263.975 1506.26 268.625 1520.36 268.625C1534.46 268.625 1546.15 263.975 1555.45 254.674C1564.9 245.229 1569.62 233.24 1569.62 218.708C1569.62 204.176 1564.9 192.187 1555.45 182.742C1546.01 173.296 1534.31 168.573 1520.36 168.573C1506.41 168.573 1494.71 173.296 1485.27 182.742C1475.82 192.187 1471.1 204.176 1471.1 218.708C1471.1 233.24 1475.82 245.229 1485.27 254.674Z" fill="#FF7A00"/>
</svg>
